<?xml version="1.0" encoding="UTF-8" standalone="no"?>
<!-- Created with Inkscape (http://www.inkscape.org/) -->

<svg
   xmlns:dc="http://purl.org/dc/elements/1.1/"
   xmlns:cc="http://creativecommons.org/ns#"
   xmlns:rdf="http://www.w3.org/1999/02/22-rdf-syntax-ns#"
   xmlns:svg="http://www.w3.org/2000/svg"
   xmlns="http://www.w3.org/2000/svg"
   xmlns:sodipodi="http://sodipodi.sourceforge.net/DTD/sodipodi-0.dtd"
   xmlns:inkscape="http://www.inkscape.org/namespaces/inkscape"
   width="210mm"
   height="297mm"
   viewBox="0 0 210 297"
   version="1.1"
   id="svg8"
   inkscape:version="0.92.4 (5da689c313, 2019-01-14)"
   sodipodi:docname="绘图.svg">
  <defs
     id="defs2" />
  <sodipodi:namedview
     id="base"
     pagecolor="#ffffff"
     bordercolor="#666666"
     borderopacity="1.0"
     inkscape:pageopacity="0.0"
     inkscape:pageshadow="2"
     inkscape:zoom="0.49497475"
     inkscape:cx="413.49884"
     inkscape:cy="561.63152"
     inkscape:document-units="mm"
     inkscape:current-layer="layer1"
     showgrid="false"
     inkscape:window-width="1920"
     inkscape:window-height="976"
     inkscape:window-x="-8"
     inkscape:window-y="73"
     inkscape:window-maximized="1" />
  <metadata
     id="metadata5">
    <rdf:RDF>
      <cc:Work
         rdf:about="">
        <dc:format>image/svg+xml</dc:format>
        <dc:type
           rdf:resource="http://purl.org/dc/dcmitype/StillImage" />
        <dc:title></dc:title>
      </cc:Work>
    </rdf:RDF>
  </metadata>
  <g
     inkscape:label="Layer 1"
     inkscape:groupmode="layer"
     id="layer1">
    <path
       style="fill:#000000;stroke-width:0.08466666"
       d="m 88.586549,108.933 c -0.155921,-0.17272 -0.170066,-0.17462 -0.226883,-0.0305 -0.05829,0.14786 -0.06082,0.14788 -0.06655,5.1e-4 -0.0033,-0.0842 -0.04494,-0.12906 -0.0926,-0.0996 -0.130306,0.0805 -0.598896,-0.15404 -0.551975,-0.27632 0.02235,-0.0582 0.0015,-0.10588 -0.04637,-0.10588 -0.04785,0 -0.06509,-0.0355 -0.0383,-0.0788 0.0766,-0.12395 -0.118221,-0.20021 -0.244257,-0.0956 -0.09023,0.0749 -0.126963,0.0287 -0.179437,-0.22555 -0.03629,-0.17583 -0.05763,-0.38488 -0.04741,-0.46454 0.01021,-0.0797 -0.0293,-0.23206 -0.08781,-0.33867 -0.126968,-0.23134 -0.237399,-1.08282 -0.140434,-1.08282 0.03738,0 0.06855,0.16192 0.06926,0.35983 7.11e-4,0.19791 0.04194,0.41698 0.09161,0.48683 0.09264,0.13028 0.06736,-0.35097 -0.05337,-1.016 -0.0352,-0.1939 -0.02642,-0.25774 0.02541,-0.1847 0.05281,0.0744 0.09858,-0.1513 0.13735,-0.67733 0.07318,-0.99307 0.387625,-2.54525 0.533737,-2.63467 0.06085,-0.0372 0.110627,-0.11889 0.110627,-0.18145 0,-0.0626 0.049,-0.13253 0.108887,-0.15551 0.05989,-0.023 0.198659,-0.41759 0.308379,-0.8769 0.109721,-0.4593 0.263072,-0.9494 0.34078,-1.0891 0.07771,-0.1397 0.271281,-0.660748 0.430164,-1.157878 0.158882,-0.497132 0.322981,-0.897182 0.364666,-0.889 0.04168,0.0082 0.184481,-0.308976 0.317326,-0.704793 0.132846,-0.395816 0.280746,-0.785824 0.328668,-0.866684 0.04792,-0.08086 0.08713,-0.205502 0.08713,-0.276982 0,-0.07148 0.09305,-0.172359 0.206774,-0.224176 0.163793,-0.07463 0.286985,-0.313264 0.592666,-1.14805 0.212241,-0.579611 0.385893,-1.086956 0.385893,-1.127433 0,-0.04048 0.05073,-0.104062 0.112734,-0.141301 0.08867,-0.05326 0.09801,-0.221315 0.04377,-0.787373 -0.13593,-1.418452 -0.250958,-2.762446 -0.289855,-3.386667 -0.02176,-0.34925 -0.0761,-0.8255 -0.120759,-1.058333 -0.196834,-1.026335 -0.42048,-2.644154 -0.447686,-3.2385 -0.01332,-0.291042 0.0058,-0.529167 0.04245,-0.529167 0.03667,0 0.06726,-0.06668 0.06797,-0.148166 6.77e-4,-0.08149 0.03686,-0.2044 0.08032,-0.273129 0.06453,-0.102045 0.09436,-0.08652 0.16267,0.08467 0.0555,0.139085 0.08545,0.16145 0.08901,0.06646 0.0083,-0.222282 0.135138,-0.249671 0.338667,-0.07315 0.102203,0.08864 0.174404,0.173574 0.160447,0.188742 -0.05518,0.05998 0.300238,1.085913 0.3762,1.085913 0.04463,0 0.06121,0.0762 0.03685,0.169333 -0.02435,0.09313 -0.01094,0.169333 0.0298,0.169333 0.04075,0 0.05163,0.05852 0.02418,0.130055 -0.02745,0.07153 0.02844,0.347756 0.124189,0.613833 0.167356,0.465051 0.303359,1.101997 0.396147,1.855291 0.02408,0.195531 0.07697,0.443181 0.117529,0.550333 0.04056,0.107152 0.101251,0.433015 0.134878,0.72414 0.03363,0.291125 0.100544,0.553671 0.148703,0.583436 0.09129,0.05642 1.206139,-1.04923 1.207392,-1.197421 4.23e-4,-0.04657 0.04783,-0.08467 0.105418,-0.08467 0.120166,0 1.038298,-0.713437 1.038298,-0.806813 0,-0.129442 1.225262,-0.972165 2.343979,-1.612165 0.148305,-0.08484 0.429982,-0.261082 0.625949,-0.391641 0.195968,-0.130559 0.504053,-0.335006 0.684633,-0.454326 0.18058,-0.119319 0.305937,-0.239334 0.278572,-0.2667 -0.02737,-0.02737 0.0077,-0.04404 0.07793,-0.03706 0.07023,0.007 0.1355,-0.0254 0.145051,-0.07197 0.02555,-0.124572 0.497549,-0.392849 0.590309,-0.335521 0.04377,0.02705 0.07958,-0.0051 0.07958,-0.07139 0,-0.148456 1.80508,-1.160981 2.0597,-1.155345 0.12506,0.0028 0.0281,0.08453 -0.30286,0.255357 -0.66655,0.344046 -0.61767,0.396175 0.0587,0.06263 0.30005,-0.147964 0.52667,-0.299571 0.5036,-0.336906 -0.0231,-0.03733 0.0123,-0.04708 0.0785,-0.02165 0.14877,0.05709 0.41874,-0.197395 0.34168,-0.32208 -0.0336,-0.05435 -0.0163,-0.06628 0.0429,-0.02966 0.0545,0.0337 0.0749,0.100534 0.0452,0.148529 -0.034,0.05498 0.0107,0.05265 0.1209,-0.0063 0.0962,-0.05146 0.19864,-0.132086 0.22773,-0.179161 0.0291,-0.04708 0.0884,-0.06367 0.13172,-0.03688 0.0434,0.02679 0.0788,0.0061 0.0788,-0.04595 0,-0.05206 0.0381,-0.07111 0.0847,-0.04233 0.0466,0.02878 0.0847,0.0097 0.0847,-0.04233 0,-0.05206 0.0381,-0.07111 0.0847,-0.04233 0.0466,0.02878 0.0847,-0.0063 0.0847,-0.07804 0,-0.07204 0.17993,-0.216555 0.40217,-0.323012 0.27188,-0.13024 0.38928,-0.233625 0.36241,-0.319133 -0.0928,-0.295342 -0.0423,-3.01042 0.0599,-3.216817 0.065,-0.131228 0.073,-0.222392 0.0212,-0.239889 -0.10965,-0.03701 -0.10792,-0.245898 0.002,-0.282649 0.0473,-0.01576 0.13019,-0.266582 0.18427,-0.557389 0.0541,-0.290805 0.12665,-0.528738 0.16126,-0.528738 0.0346,0 0.12619,-0.1905 0.20352,-0.423333 0.0773,-0.232834 0.1779,-0.423334 0.22347,-0.423334 0.0456,0 0.0644,-0.02981 0.0419,-0.06624 -0.0225,-0.03643 0.0991,-0.159918 0.27017,-0.274411 0.17111,-0.114493 0.33098,-0.234778 0.35527,-0.267299 0.0243,-0.03252 0.17145,-0.04942 0.32701,-0.03755 0.34403,0.02625 1.14697,0.682327 1.07252,0.876345 -0.0295,0.07681 0.0164,0.14017 0.12134,0.167613 0.0928,0.02427 0.14786,0.07789 0.12235,0.119165 -0.0255,0.04127 -0.006,0.07504 0.0433,0.07504 0.0493,0 0.0851,0.02858 0.0796,0.0635 -0.026,0.164489 0.0176,0.280475 0.0888,0.236449 0.10351,-0.06397 0.19678,0.09452 0.21706,0.368837 0.0298,0.402623 0.0422,0.442228 0.12321,0.392173 0.10291,-0.0636 0.2486,0.21422 0.19349,0.368993 -0.0238,0.06672 -0.004,0.09415 0.0459,0.06338 0.054,-0.03338 0.0707,0.01111 0.0433,0.115666 -0.0244,0.09344 -0.007,0.217323 0.0387,0.275283 0.0826,0.104741 0.18348,0.599675 0.23661,1.160769 0.0153,0.161364 0.0874,0.337014 0.16036,0.390335 0.0729,0.05332 0.13258,0.140371 0.13258,0.193445 0,0.107085 0.11653,0.119686 0.40122,0.04339 0.10425,-0.02794 0.17118,-0.08053 0.14872,-0.116852 -0.0225,-0.03633 0.0447,-0.06466 0.14912,-0.06297 0.66895,0.01085 2.59681,-0.337638 2.48522,-0.449236 -0.0225,-0.02253 0.11406,-0.02617 0.30353,-0.0081 0.18973,0.01809 0.32345,-0.0012 0.29766,-0.04292 -0.0259,-0.04196 0.21466,-0.07362 0.53919,-0.07095 0.3223,0.0027 0.58601,-0.02027 0.58601,-0.05095 0,-0.03068 0.56197,-0.0865 1.24883,-0.124059 1.35492,-0.07408 1.3445,-0.07387 1.8415,-0.0386 l 0.33867,0.02403 -0.29633,0.06238 c -0.2878,0.06058 -0.28414,0.06301 0.127,0.08452 0.23283,0.01218 0.61383,0.03567 0.84666,0.0522 0.23284,0.01653 0.50906,0.03105 0.61384,0.03228 0.10477,0.0012 0.1905,0.04215 0.1905,0.09094 0,0.04879 0.039,0.06462 0.0867,0.03517 0.0976,-0.06031 0.59068,0.134666 0.59068,0.233558 0,0.0352 0.0762,0.064 0.16934,0.064 0.0931,0 0.16933,0.03732 0.16933,0.08295 0,0.04562 0.16193,0.164219 0.35983,0.263554 0.42725,0.214445 0.74084,0.486165 0.74084,0.641924 0,0.06173 0.0381,0.112242 0.0847,0.112242 0.0466,0 0.0847,0.04463 0.0847,0.09917 0,0.05454 0.0615,0.167083 0.13658,0.250091 0.12627,0.139527 0.11926,0.20077 -0.0928,0.811 -0.12616,0.363041 -0.23525,0.76 -0.24242,0.882129 -0.008,0.127352 -0.0541,0.206287 -0.10937,0.185085 -0.053,-0.02033 -0.14801,0.07977 -0.21117,0.222446 -0.0631,0.142679 -0.16267,0.259415 -0.22116,0.259415 -0.0585,0 -0.10651,0.02857 -0.10673,0.0635 -6e-4,0.09962 -0.50964,0.61919 -1.01608,1.037167 -0.2539,0.20955 -0.55062,0.467453 -0.65938,0.573118 -0.10876,0.105665 -0.23432,0.169508 -0.27904,0.141873 -0.0447,-0.02763 -0.0708,-0.0046 -0.058,0.05129 0.0128,0.05584 -0.23946,0.291132 -0.56058,0.522867 -0.32589,0.235178 -0.56012,0.359493 -0.53014,0.281366 0.061,-0.15906 0.0996,-0.17809 -0.74868,0.369854 -0.32597,0.210566 -0.66714,0.394477 -0.75817,0.40869 -0.27289,0.04261 -0.8225,0.407667 -1.29929,0.86301 -0.24683,0.235732 -0.49089,0.428603 -0.54234,0.428603 -0.0515,0 -0.21425,0.09206 -0.36177,0.204585 -0.14752,0.112521 -0.92928,0.546179 -1.73723,0.963686 -0.98182,0.507352 -1.4807,0.81155 -1.50428,0.917249 -0.0194,0.08698 -0.035,0.367697 -0.0346,0.623814 5.1e-4,0.347149 -0.0137,0.402242 -0.0558,0.216467 -0.0833,-0.367286 -0.22202,-0.31164 -0.25188,0.101033 -0.0205,0.283277 0.003,0.359833 0.10849,0.359833 0.074,0 0.15977,0.06667 0.19063,0.148167 0.0309,0.08149 0.0963,0.187462 0.14551,0.235489 0.12409,0.121198 0.55507,0.143219 0.55507,0.02836 0,-0.06424 0.04,-0.06087 0.12618,0.01064 0.079,0.06554 0.10752,0.179068 0.0763,0.30345 -0.0413,0.164534 -0.021,0.19316 0.11813,0.166371 0.13119,-0.02526 0.15857,0.0038 0.12492,0.132429 -0.0446,0.170482 0.27761,0.533106 0.40417,0.454888 0.0362,-0.02238 0.0459,0.03556 0.0215,0.128758 -0.0244,0.0932 -0.0113,0.16945 0.0291,0.16945 0.14262,0 0.0754,0.424722 -0.0748,0.472385 -0.15481,0.04913 -0.20678,0.204948 -0.0684,0.204948 0.0929,0 0.0422,0.345421 -0.0612,0.417111 -0.0385,0.02671 -0.15795,0.220006 -0.26538,0.429556 l -0.19531,0.381 0.19618,-0.169334 c 0.19051,-0.164429 0.19017,-0.161683 -0.0118,0.09483 -0.19295,0.245097 -0.41074,0.315099 -0.27945,0.08982 0.032,-0.05499 -0.0245,-0.0274 -0.12562,0.06131 -0.19336,0.169596 -0.24651,0.389044 -0.0942,0.389044 0.0493,0 0.0683,-0.03455 0.0422,-0.07677 -0.0261,-0.04222 0.0256,-0.05766 0.11496,-0.0343 0.19227,0.05028 1.94154,-0.36545 2.10359,-0.499933 0.0773,-0.06418 0.13928,-0.06582 0.19981,-0.0053 0.0524,0.05244 0.31156,0.06976 0.6442,0.04306 0.4471,-0.03589 0.54292,-0.02272 0.48747,0.067 -0.0506,0.08195 -0.0297,0.09657 0.0788,0.05495 0.0813,-0.0312 0.16599,-0.05672 0.18821,-0.05672 0.0222,0 0.0132,-0.04399 -0.02,-0.09775 -0.04,-0.06473 -0.0229,-0.07457 0.0506,-0.02914 0.0611,0.03774 0.28603,0.08297 0.49992,0.100519 0.21529,0.01766 0.43214,0.08912 0.48577,0.160069 0.14241,0.188394 0.0403,0.45319 -0.19786,0.512956 -0.13972,0.03507 -0.17978,0.08011 -0.12232,0.137564 0.0999,0.09994 0.001,0.208179 -0.37238,0.408898 -0.13804,0.07413 -0.24281,0.174848 -0.23282,0.223808 0.01,0.04896 -0.10432,0.137062 -0.254,0.19578 -0.14969,0.05872 -0.31026,0.150836 -0.35683,0.204702 -0.0852,0.09861 -2.00795,0.806091 -2.24266,0.825212 -0.0693,0.0056 -0.17679,0.06106 -0.23888,0.123153 -0.0621,0.06209 -0.1978,0.112889 -0.30157,0.112889 -0.10378,0 -0.22488,0.03339 -0.26912,0.07419 -0.0442,0.0408 -0.34035,0.159121 -0.65802,0.262927 -0.32584,0.106476 -0.60081,0.249428 -0.63088,0.327979 -0.0293,0.07658 -0.12945,0.20101 -0.22252,0.2765 -0.21558,0.17487 -0.23169,0.70421 -0.0261,0.85702 0.11336,0.0842 0.12721,0.15924 0.0665,0.36039 -0.0733,0.24312 -0.0773,0.24494 -0.0923,0.0423 l -0.0157,-0.21167 -0.061,0.21167 c -0.0335,0.11641 -0.0257,0.23548 0.0175,0.26458 0.0442,0.0298 0.0307,0.0824 -0.0308,0.12044 -0.0821,0.0508 -0.0686,0.0834 0.0545,0.13163 0.14275,0.0559 0.14474,0.0649 0.0156,0.0701 -0.15301,0.006 -0.21429,0.17529 -0.0635,0.17529 0.0466,0 0.0847,0.0571 0.0847,0.127 0,0.0699 -0.0428,0.127 -0.095,0.127 -0.0657,0 -0.0625,0.0392 0.0104,0.127 0.0836,0.10073 0.0837,0.127 5.1e-4,0.127 -0.0662,0 -0.09,0.078 -0.0644,0.21166 0.0275,0.14405 0.003,0.21167 -0.0778,0.21167 -0.0955,0 -0.0992,0.0366 -0.0191,0.1905 0.0545,0.10477 0.0689,0.16225 0.0319,0.12773 -0.037,-0.0345 -0.11831,-0.0203 -0.1808,0.0315 -0.13108,0.10879 -0.15564,0.27886 -0.029,0.20057 0.0466,-0.0288 0.0847,-0.012 0.0847,0.0373 0,0.11668 -0.11065,0.11449 -0.22969,-0.005 -0.11566,-0.11564 -0.27832,-0.0274 -0.27832,0.15097 0,0.11141 -0.0806,0.12193 -0.52917,0.0691 -0.29104,-0.0343 -0.60537,-0.0576 -0.6985,-0.0517 -0.36283,0.0226 -0.56987,-0.0749 -0.5248,-0.24726 0.0259,-0.0991 7.7e-4,-0.16549 -0.0627,-0.16549 -0.12676,0 -0.40587,-0.29077 -0.3412,-0.35544 0.025,-0.025 -0.0906,-0.16473 -0.25676,-0.31063 -0.16617,-0.1459 -0.27222,-0.26643 -0.23568,-0.26784 0.0365,-0.001 -0.002,-0.0423 -0.0854,-0.091 -0.0998,-0.0581 -0.13412,-0.14431 -0.10012,-0.25143 0.0299,-0.0942 0.012,-0.16305 -0.0423,-0.16305 -0.0517,0 -0.0834,-0.0476 -0.0703,-0.10583 0.0266,-0.11831 -0.24955,-0.89557 -0.37509,-1.05563 -0.0445,-0.0567 -0.12486,-0.0948 -0.1786,-0.0847 -0.0537,0.0101 -0.092,-0.0508 -0.085,-0.13552 0.009,-0.10415 -0.0281,-0.13832 -0.11348,-0.10556 -0.20564,0.0789 -0.30365,-0.0429 -0.13715,-0.17042 0.13731,-0.10518 0.12244,-0.11239 -0.1431,-0.0694 -0.16484,0.0267 -0.25602,0.0166 -0.20549,-0.0227 0.12295,-0.0956 0.23027,-0.392277 0.11646,-0.321935 -0.0565,0.03495 -0.0666,-0.02783 -0.0287,-0.178857 0.0486,-0.193813 0.0351,-0.223729 -0.0813,-0.179085 -0.0768,0.02948 -0.13967,0.01669 -0.13967,-0.02841 0,-0.06996 0.16871,-0.116703 0.34729,-0.09622 0.0937,0.01075 -0.0258,-0.40265 -0.145,-0.501576 -0.0647,-0.05369 -0.11763,-0.152645 -0.11763,-0.219901 0,-0.06726 -0.0998,-0.25309 -0.22171,-0.412966 -0.12195,-0.159876 -0.19348,-0.290684 -0.15897,-0.290684 0.11851,0 -0.16275,-0.271664 -0.35819,-0.345969 -0.10752,-0.04088 -0.23197,-0.170261 -0.27655,-0.287513 -0.0652,-0.171528 -0.13872,-0.213185 -0.37618,-0.213185 -0.17835,0 -0.35507,-0.06285 -0.4466,-0.158828 -0.0833,-0.08736 -0.23739,-0.185238 -0.34242,-0.217517 -0.10503,-0.03228 -0.30427,-0.154037 -0.44277,-0.270574 -0.13849,-0.116536 -0.28672,-0.190305 -0.32939,-0.163932 -0.15341,0.09481 -0.47727,-0.155396 -0.44991,-0.347587 0.0168,-0.117893 -0.0364,-0.218347 -0.14702,-0.277533 -0.22449,-0.120142 -0.20813,-0.502664 0.0298,-0.697291 0.14051,-0.114929 0.15443,-0.16479 0.0697,-0.249767 -0.13536,-0.135786 -0.13536,-0.241619 0,-0.241704 0.0582,-3.7e-5 0.35348,-0.120703 0.65616,-0.268147 0.30269,-0.147443 0.58292,-0.260377 0.62275,-0.250963 0.0398,0.0094 0.12184,-0.02391 0.18226,-0.07405 0.0781,-0.06484 0.11861,-0.06493 0.14015,-3.39e-4 0.0346,0.103725 0.57884,-0.05303 0.57884,-0.166711 0,-0.03649 0.17145,-0.122791 0.381,-0.191778 0.31673,-0.10427 0.381,-0.105963 0.381,-0.01004 0,0.153102 0.16334,0.145558 0.56116,-0.02592 0.18031,-0.07772 0.42776,-0.132509 0.54989,-0.121751 0.12212,0.01076 0.40787,-0.03906 0.635,-0.110713 0.35156,-0.110909 0.84326,-0.192601 1.28578,-0.213624 0.061,-0.0029 0.0873,-0.04337 0.0585,-0.08993 -0.0531,-0.08587 0.099,-0.115967 0.4445,-0.08798 0.16516,0.01338 0.1905,-0.02514 0.1905,-0.289619 0,-0.185382 0.0472,-0.323143 0.1202,-0.351175 0.0987,-0.03787 0.102,-0.08942 0.0184,-0.288157 -0.0942,-0.224059 -0.56196,-0.677831 -0.56196,-0.545148 0,0.03236 -0.0511,0.01641 -0.11363,-0.03545 -0.0625,-0.05186 -0.1341,-0.07382 -0.15912,-0.0488 -0.025,0.02503 -0.1676,-0.108653 -0.31683,-0.297068 -0.14923,-0.188414 -0.32869,-0.34257 -0.3988,-0.34257 -0.18578,0 -0.46257,-0.363339 -0.33744,-0.442955 0.0618,-0.03934 0.0381,-0.06293 -0.0641,-0.06375 -0.0892,-6.77e-4 -0.13801,-0.02557 -0.10834,-0.05524 0.0297,-0.02967 -0.0306,-0.172544 -0.13392,-0.3175 -0.10333,-0.144956 -0.18928,-0.282607 -0.191,-0.305891 -0.002,-0.02328 -0.0499,-0.126514 -0.10711,-0.229403 -0.0572,-0.102889 -0.0967,-0.217189 -0.0879,-0.254 0.021,-0.08712 -0.17402,-0.769237 -0.27039,-0.94597 -0.0788,-0.144474 -0.337,-1.043779 -0.33479,-1.165991 6.8e-4,-0.0394 0.0417,-0.01449 0.0911,0.05537 0.0649,0.09189 0.0745,-0.02499 0.0345,-0.422819 -0.0596,-0.593024 -0.0983,-0.691727 -0.20402,-0.520637 -0.0392,0.06347 -0.068,-0.08868 -0.068,-0.359807 0,-0.258379 0.0327,-0.449597 0.0726,-0.424929 0.0399,0.02467 0.0681,-0.06217 0.0627,-0.192978 -0.007,-0.165349 -0.0223,-0.188929 -0.0509,-0.07737 -0.03,0.117028 -0.059,0.131484 -0.10725,0.05341 -0.0498,-0.08058 -0.26715,-0.01183 -0.87912,0.278059 -0.44714,0.211809 -0.832,0.354328 -0.85525,0.316708 -0.0232,-0.03762 -0.50936,0.183946 -1.08025,0.492368 -0.57089,0.308422 -1.08261,0.550519 -1.13715,0.537995 -0.12108,-0.02781 -0.762938,0.34245 -1.722251,0.993481 -0.395817,0.268619 -0.981285,0.628909 -1.301042,0.800646 -0.519343,0.278932 -0.979963,0.601363 -2.254958,1.578456 -0.780989,0.598512 -1.100667,0.87245 -1.100667,0.943182 0,0.04001 -0.111473,0.195563 -0.24772,0.345663 -0.479816,0.528608 -0.683407,0.781614 -0.68351,0.849408 -5.6e-5,0.03767 -0.04384,0.04146 -0.0973,0.0084 -0.072,-0.0445 -0.08265,0.146329 -0.04109,0.735836 0.14399,2.042345 0.227523,3.730734 0.213684,4.319063 -0.0083,0.354467 0.0117,0.687953 0.04454,0.741082 0.03283,0.05313 0.03929,0.258409 0.01434,0.456181 -0.02495,0.197771 -0.06613,0.740585 -0.09152,1.206251 -0.06141,1.126458 -0.217186,2.203078 -0.299497,2.069898 -0.03628,-0.0587 -0.06698,0.0886 -0.06885,0.33049 -0.0019,0.24004 -0.03017,0.47978 -0.06291,0.53276 -0.03274,0.053 -0.06864,0.31004 -0.07978,0.57125 -0.02917,0.68441 -0.03215,0.70127 -0.114901,0.65013 -0.08226,-0.0508 -0.482854,0.86132 -0.410177,0.934 0.02463,0.0246 0.108869,-0.14819 0.187206,-0.38404 0.07834,-0.23585 0.158098,-0.42882 0.177247,-0.42882 0.06625,0 -0.01817,0.46641 -0.117764,0.6506 -0.055,0.10171 -0.09999,0.23064 -0.09999,0.28651 0,0.16113 -0.67877,1.46529 -0.820298,1.57609 -0.0704,0.0551 -0.102032,0.1422 -0.0703,0.19354 0.07149,0.11567 -0.394697,0.85724 -0.834176,1.32693 -0.254696,0.27221 -0.383256,0.34686 -0.574543,0.33362 -0.172893,-0.012 -0.23373,0.016 -0.203877,0.0938 0.0234,0.061 -0.0039,0.11653 -0.06063,0.12342 -0.05675,0.007 -0.160326,0.018 -0.230176,0.0246 -0.313975,0.0298 -0.841282,0.25285 -0.863984,0.36547 -0.01929,0.0957 -0.06306,0.082 -0.191304,-0.0601 z m 2.235605,-1.15745 c 0.239421,-0.26197 0.414345,-0.49726 0.388722,-0.52289 -0.02562,-0.0256 0.03646,-0.13499 0.137964,-0.24303 0.101504,-0.10805 0.163596,-0.21741 0.137981,-0.24302 -0.04532,-0.0453 -0.638332,0.64964 -0.596151,0.69864 0.07788,0.0905 -0.02351,0.22001 -0.3175,0.4056 -0.186267,0.11758 -0.338667,0.25141 -0.338667,0.29739 0,0.17825 0.169139,0.0652 0.587651,-0.39269 z m -0.04179,-1.3936 c -0.02726,-0.0441 -0.08565,-0.0579 -0.129762,-0.0306 -0.04411,0.0273 -0.05789,0.0857 -0.03063,0.12976 0.02726,0.0441 0.08565,0.0579 0.129762,0.0306 0.04411,-0.0273 0.05789,-0.0856 0.03063,-0.12976 z m -2.493197,-0.45344 c 0,-0.0205 -0.0381,-0.0609 -0.08467,-0.0897 -0.04657,-0.0288 -0.08467,-0.012 -0.08467,0.0373 0,0.0493 0.0381,0.0897 0.08467,0.0897 0.04657,0 0.08467,-0.0168 0.08467,-0.0373 z m 1.60715,-0.95642 c 0.103114,-0.22178 0.256034,-0.47944 0.339822,-0.57258 0.170455,-0.18946 0.607901,-1.50811 0.758356,-2.286 0.05404,-0.2794 0.133703,-0.60325 0.177027,-0.71966 0.107753,-0.28954 0.419872,-2.920016 0.418675,-3.528519 -5.08e-4,-0.271233 0.0438,-0.959457 0.09853,-1.529385 0.09877,-1.028725 0.09196,-1.109667 -0.158575,-1.884767 -0.02258,-0.06985 -0.170685,0.228224 -0.329128,0.662387 -0.255959,0.701378 -0.274781,0.80837 -0.168816,0.959656 0.106062,0.151423 0.08292,0.278457 -0.209125,1.147738 -0.294931,0.877888 -0.319733,1.016085 -0.24344,1.356516 0.07204,0.321475 0.05244,0.485632 -0.129097,1.080786 -0.239454,0.785048 -0.263273,1.024278 -0.10821,1.086848 0.06322,0.0255 0.04618,0.0454 -0.04233,0.0494 -0.08149,0.004 -0.148166,0.047 -0.148166,0.0964 0,0.0493 0.0326,0.0695 0.07244,0.0449 0.03984,-0.0246 0.05453,0.0489 0.03265,0.16335 -0.02188,0.11446 -0.07309,0.18753 -0.113799,0.16237 -0.04071,-0.0252 -0.05314,0.009 -0.02762,0.0752 0.02552,0.0665 -0.01316,0.35075 -0.08595,0.63166 -0.07279,0.28091 -0.110185,0.5685 -0.0831,0.63909 0.02709,0.0706 -0.02692,0.52175 -0.120028,1.00257 -0.211211,1.09079 -0.295096,1.87509 -0.19386,1.81252 0.04195,-0.0259 0.160632,-0.22859 0.263746,-0.45038 z m -2.301362,-1.84258 c 0,-0.13408 -0.01411,-0.12527 -0.06779,0.0423 -0.03728,0.11642 -0.06779,0.28787 -0.06779,0.381 0,0.13409 0.01411,0.12527 0.06779,-0.0423 0.03728,-0.11641 0.06779,-0.28786 0.06779,-0.381 z m 18.646205,-5.355164 c 0.002,-0.03493 0.10298,-0.136685 0.2256,-0.226132 0.12262,-0.08945 0.19538,-0.118022 0.16168,-0.0635 -0.13116,0.212223 0.0957,0.08093 0.52383,-0.303185 0.48649,-0.436451 0.48136,-0.419704 0.45641,-1.491272 l -0.0155,-0.665923 -0.48684,0.05631 c -1.20869,0.139795 -2.30069,0.320179 -2.7071,0.447181 -0.43171,0.134907 -0.43777,0.141228 -0.254,0.264695 0.49242,0.33083 1.63685,1.507046 1.76326,1.81224 0.0864,0.208558 0.32592,0.330667 0.33267,0.169589 z m 6.84828,-0.409718 c 0.10493,-0.103452 -0.0832,-0.0962 -0.37718,0.01454 l -0.33543,0.126356 0.33867,-0.05305 c 0.18627,-0.02918 0.35454,-0.06871 0.37394,-0.08784 z M 110.93822,97.1225 c 0.16149,-0.06748 0.29361,-0.143367 0.29361,-0.168649 0,-0.04089 -0.66638,0.191053 -0.75494,0.262763 -0.0924,0.07484 0.19949,0.01529 0.46133,-0.09411 z m 1.73295,-0.215988 c 0.0699,-0.04514 0.0889,-0.08207 0.0423,-0.08207 -0.0466,0 -0.14182,0.03693 -0.21167,0.08207 -0.0699,0.04514 -0.0889,0.08207 -0.0423,0.08207 0.0466,0 0.14182,-0.03693 0.21167,-0.08207 z m -2.45534,-6.853002 c 0,-0.09039 -0.0381,-0.187884 -0.0847,-0.216664 -0.048,-0.02968 -0.0847,0.04145 -0.0847,0.164336 0,0.119165 0.0381,0.216664 0.0847,0.216664 0.0466,0 0.0847,-0.07395 0.0847,-0.164336 z m 1.09183,-0.486599 c 0.42161,-0.270636 0.78927,-0.55911 0.81701,-0.641054 0.0277,-0.08194 0.35255,-0.342787 0.7218,-0.579652 0.36925,-0.236865 0.67136,-0.481387 0.67136,-0.543382 0,-0.06199 0.23563,-0.255853 0.52362,-0.430797 0.28799,-0.174944 0.58954,-0.384003 0.67011,-0.464576 0.0806,-0.08057 0.36882,-0.288178 0.64055,-0.461344 0.84916,-0.541146 2.08334,-1.494967 2.55927,-1.977905 0.54243,-0.550422 1.21041,-1.437382 1.15275,-1.530672 -0.0375,-0.0607 -0.73137,-0.196681 -0.85824,-0.168192 -0.0301,0.0068 -0.0812,-0.03041 -0.11345,-0.08261 -0.1662,-0.268909 -2.76509,-0.228854 -4.96468,0.07652 -0.33096,0.04595 -0.68752,0.06702 -0.79235,0.04684 -0.24667,-0.04751 -1.20825,0.151157 -2.11958,0.437907 -0.39581,0.124544 -0.73299,0.236215 -0.74928,0.248158 -0.055,0.04031 -0.0556,0.694646 -5.9e-4,0.660605 0.0954,-0.0591 0.1646,0.384798 0.1661,1.066168 7.6e-4,0.363493 0.0368,0.769281 0.0801,0.90175 l 0.0786,0.240851 -0.0268,-0.275167 c -0.0148,-0.151341 0.005,-0.275166 0.0432,-0.275166 0.0385,0 0.07,0.08763 0.07,0.194733 0,0.107103 0.0476,0.246043 0.10583,0.308754 0.0847,0.09122 0.0847,0.102071 0,0.05427 -0.12429,-0.07017 -0.1531,0.457411 -0.0322,0.589476 0.0405,0.04424 0.0958,0.226675 0.1229,0.405415 0.04,0.264051 0.0258,0.315997 -0.0756,0.277062 -0.10543,-0.04046 -0.11499,0.02763 -0.0614,0.437018 0.0349,0.266716 0.0632,0.742113 0.0628,1.056438 -6e-4,0.524673 0.0356,0.613407 0.23753,0.581526 0.0349,-0.0055 0.0635,0.0893 0.0635,0.210699 0,0.275117 0.0275,0.265192 1.00716,-0.36366 z m -3.37222,-0.788398 c 0.007,-0.162984 -0.0207,-0.620184 -0.0604,-1.016 -0.0397,-0.395817 -0.0722,-0.938742 -0.0722,-1.2065 0,-0.267758 -0.0308,-0.486833 -0.0685,-0.486833 -0.0377,0 -0.0432,-0.0409 -0.0123,-0.0909 0.0309,-0.04999 0.0287,-0.511747 -0.005,-1.026121 -0.0381,-0.58255 -0.0888,-0.891498 -0.13455,-0.819271 -0.0568,0.0897 -0.0738,0.08036 -0.0748,-0.04127 -9e-4,-0.108823 -0.0428,-0.141292 -0.13617,-0.105472 -0.0742,0.02846 -0.22657,0.07477 -0.33866,0.102903 -0.11209,0.02813 -0.2038,0.07909 -0.2038,0.113238 0,0.03415 -0.15633,0.108923 -0.3474,0.166168 -0.33175,0.0994 -0.3449,0.116201 -0.2921,0.373235 0.0304,0.148034 0.074,0.572674 0.0969,0.943644 0.0229,0.370971 0.0731,0.694821 0.11152,0.719667 0.0385,0.02485 0.0971,0.302699 0.13034,0.617449 0.0337,0.318889 0.116,0.627876 0.18598,0.697851 0.0691,0.06907 0.10632,0.156733 0.0828,0.194814 -0.0235,0.03808 0.0693,0.304545 0.20627,0.592144 0.13698,0.2876 0.24905,0.560195 0.24905,0.605767 0,0.04557 0.0773,0.124211 0.17171,0.174753 0.0944,0.05054 0.14934,0.128082 0.122,0.172312 -0.0273,0.04423 -0.003,0.08042 0.0541,0.08042 0.0571,0 0.0787,0.02507 0.0481,0.05571 -0.0306,0.03064 -0.008,0.112714 0.0494,0.182385 0.0876,0.105606 0.11515,0.05761 0.16552,-0.288543 0.0332,-0.228371 0.0657,-0.548569 0.0722,-0.711552 z m 1.82779,-1.355 c -0.0328,-0.299871 -0.14006,-0.445366 -0.14006,-0.190036 0,0.184281 0.0792,0.444369 0.13534,0.444369 0.0179,0 0.02,-0.11445 0.005,-0.254333 z m 8.15727,-0.633943 c 0,-0.01654 -0.1143,0.02694 -0.254,0.09663 -0.1397,0.06969 -0.254,0.164615 -0.254,0.210942 0,0.04633 0.1143,0.0028 0.254,-0.09663 0.1397,-0.09947 0.254,-0.1944 0.254,-0.210942 z m -17.18733,-2.037072 c 0,-0.02328 -0.1143,0.01677 -0.254,0.08901 -0.1397,0.07224 -0.254,0.150398 -0.254,0.173682 0,0.02328 0.1143,-0.01677 0.254,-0.08901 0.1397,-0.07224 0.254,-0.150399 0.254,-0.173682 z m 0.46791,-0.275633 c -0.0261,-0.02607 -0.0944,-5.5e-5 -0.15182,0.05781 -0.083,0.08362 -0.0733,0.09334 0.0474,0.0474 0.0835,-0.0318 0.13049,-0.07914 0.10442,-0.105205 z m 20.19075,-1.992896 c 0,-0.01607 -0.0857,-0.101791 -0.1905,-0.1905 l -0.1905,-0.161289 0.16129,0.1905 c 0.15158,0.179022 0.21971,0.229043 0.21971,0.161289 z M 106.79292,82.03626 c 0.44492,-0.147423 0.66239,-0.28419 0.45535,-0.286376 -0.0939,-9.91e-4 -0.0977,-0.01724 -0.0162,-0.06898 0.0812,-0.05157 0.0869,-0.171712 0.0237,-0.504694 -0.0456,-0.240356 -0.10549,-0.634773 -0.13313,-0.876481 -0.0575,-0.502754 -0.41008,-1.606571 -0.6113,-1.913666 -0.13549,-0.206785 -0.13595,-0.206239 -0.28017,0.330162 -0.10483,0.389864 -0.13781,0.792837 -0.12022,1.468624 0.0133,0.512233 0.028,1.169458 0.0325,1.460499 0.009,0.598013 0.0147,0.601215 0.64936,0.390914 z m 8.31065,-1.6909 c -0.0281,-0.02813 -0.10116,-0.03114 -0.16228,-0.0067 -0.0675,0.02703 -0.0475,0.04709 0.0512,0.05115 0.0892,0.0037 0.13926,-0.01633 0.11113,-0.04447 z m 1.06126,-0.09311 c -0.10413,-0.0201 -0.29463,-0.02062 -0.42333,-0.0012 -0.1287,0.01946 -0.0435,0.0359 0.18933,0.03654 0.23284,6.78e-4 0.33814,-0.01529 0.234,-0.03538 z m 0.59312,0.0041 c -0.0573,-0.02319 -0.17163,-0.0246 -0.254,-0.0031 -0.0824,0.02147 -0.0355,0.04044 0.10422,0.04217 0.1397,0.0017 0.2071,-0.01584 0.14978,-0.03903 z m -9.47623,-3.377116 c -0.0276,-0.07186 -0.0683,-0.112493 -0.0905,-0.0903 -0.0222,0.02219 -0.0152,0.08099 0.0155,0.130651 0.0835,0.135082 0.13228,0.10884 0.075,-0.04035 z m 5.47411,31.832796 c -0.62865,-0.11065 -1.46273,-0.26247 -1.85351,-0.33738 -0.46836,-0.0898 -0.72858,-0.10699 -0.76351,-0.0504 -0.0539,0.0872 -1.69969,-0.21303 -1.78564,-0.32574 -0.0453,-0.0594 -1.20219,-0.31589 -1.69333,-0.37542 -0.16299,-0.0198 -0.39159,-0.0723 -0.508,-0.11672 -0.11642,-0.0444 -0.23625,-0.0759 -0.26628,-0.0698 -0.03,0.006 -0.14136,-0.0652 -0.24739,-0.15831 -0.10603,-0.0931 -0.16493,-0.12171 -0.13089,-0.0635 0.034,0.0582 0.0311,0.10581 -0.007,0.10579 -0.0956,-6e-5 -0.98141,-0.34 -1.0845,-0.41621 -0.0466,-0.0344 -0.27517,-0.1325 -0.508,-0.21794 -0.46637,-0.17114 -1.66869,-0.72885 -1.73566,-0.80511 -0.17173,-0.19554 -0.53542,-0.40074 -0.65718,-0.37078 -0.0809,0.0199 -0.35671,-0.0982 -0.61282,-0.26247 -0.25612,-0.16428 -0.57051,-0.36524 -0.69864,-0.44657 -0.12813,-0.0813 -0.216877,-0.19074 -0.19722,-0.24312 0.0197,-0.0524 -0.139786,-0.18574 -0.354327,-0.29634 -0.238458,-0.12293 -0.452968,-0.31499 -0.551881,-0.49413 -0.08899,-0.16118 -0.218874,-0.33478 -0.288625,-0.38578 -0.14433,-0.10554 -0.199548,-0.78334 -0.06831,-0.83853 0.04657,-0.0196 0.03704,-0.0386 -0.02117,-0.0423 -0.05821,-0.004 -0.105833,-0.0366 -0.105833,-0.0732 0,-0.0366 0.13335,-0.0621 0.296333,-0.0567 0.162983,0.005 0.296333,-0.0226 0.296333,-0.0623 0,-0.0397 0.09223,-0.11412 0.204966,-0.16548 0.171422,-0.0781 0.251095,-0.0605 0.486833,0.10751 0.155031,0.1105 0.300921,0.20426 0.324201,0.20835 0.0742,0.013 0.37452,0.13207 0.5715,0.22647 0.10477,0.0502 0.1905,0.14067 0.1905,0.20101 0,0.14267 0.31421,0.31012 0.43817,0.23351 0.0633,-0.0391 0.0724,-0.0211 0.0267,0.0528 -0.05,0.081 -0.0309,0.0974 0.0689,0.0591 0.076,-0.0292 0.16065,-0.0167 0.18811,0.0278 0.0275,0.0444 0.26681,0.18278 0.53188,0.30742 0.26507,0.12465 0.52928,0.29268 0.58714,0.37341 0.0666,0.093 0.17012,0.1298 0.28232,0.10046 0.12102,-0.0316 0.1446,-0.0664 0.0744,-0.10977 -0.0565,-0.0349 -0.0798,-0.10045 -0.0519,-0.14567 0.0286,-0.0463 0.4802,0.13182 1.0347,0.4082 0.54113,0.26973 1.02797,0.47436 1.08187,0.45474 0.0539,-0.0196 0.57423,0.1333 1.15632,0.33981 0.58208,0.20652 1.02658,0.37753 0.98777,0.38001 -0.0822,0.005 -1.33453,-0.31007 -1.53145,-0.38564 -0.0747,-0.0286 -0.13366,-0.008 -0.13366,0.0474 0,0.0543 0.0381,0.0752 0.0847,0.0464 0.0466,-0.0288 0.0847,-0.0144 0.0847,0.0321 0,0.0464 0.0667,0.0825 0.14817,0.0801 0.19449,-0.006 1.40497,0.36833 1.46379,0.45221 0.0251,0.0358 0.31084,0.14459 0.635,0.24179 0.32415,0.0972 0.63898,0.19326 0.69961,0.21347 0.0606,0.0202 0.087,-9.3e-4 0.0585,-0.047 -0.0285,-0.046 -0.10228,-0.0837 -0.16406,-0.0837 -0.0618,0 -0.22145,-0.0569 -0.35483,-0.12648 -0.13338,-0.0696 -0.31871,-0.1273 -0.41185,-0.1283 -0.20174,-0.002 -0.43953,-0.13824 -0.36748,-0.21029 0.028,-0.028 0.36981,0.0265 0.75954,0.12107 0.38974,0.0946 0.88006,0.19181 1.08961,0.216 0.4204,0.0485 1.63877,0.2789 1.905,0.36018 0.15568,0.0475 0.15243,0.0559 -0.0404,0.10361 -0.13793,0.0341 0.27303,0.13722 1.2008,0.3012 0.77578,0.13711 1.39291,0.26687 1.37142,0.28837 -0.0627,0.0627 0.71037,0.26435 1.4898,0.3885 0.39582,0.063 0.94827,0.17397 1.22767,0.2465 0.2794,0.0725 0.92952,0.16974 1.44472,0.21604 1.50028,0.13483 1.44842,0.11326 1.39473,0.58007 l -0.0455,0.39519 -0.80434,-0.0147 c -0.44238,-0.008 -1.00876,-0.0375 -1.25861,-0.0654 -0.40075,-0.0448 -0.4479,-0.0341 -0.40013,0.0904 0.0489,0.12731 -0.0145,0.13577 -0.64638,0.0864 -2.01941,-0.15776 -2.23587,-0.15963 -2.06019,-0.0178 0.15792,0.12752 0.15461,0.1324 -0.0847,0.1247 -0.13696,-0.004 -0.76337,-0.0985 -1.39202,-0.20918 z m -2.37066,-1.59409 c 0,-0.0183 -0.0591,-0.056 -0.1314,-0.0837 -0.0754,-0.0289 -0.10933,-0.0147 -0.0797,0.0333 0.0497,0.0804 0.21107,0.119 0.21107,0.0504 z m 0.33866,-0.004 c 0,-0.0894 -0.16248,-0.1269 -0.21081,-0.0487 -0.0292,0.0473 0.006,0.0861 0.0788,0.0861 0.0726,0 0.132,-0.0168 0.132,-0.0373 z m -5.46523,-0.126 c -0.0442,-0.0433 -0.19473,-0.10206 -0.33443,-0.13064 l -0.254,-0.052 0.254,0.12376 c 0.30036,0.14635 0.45099,0.17286 0.33443,0.0588 z m 5.7404,-0.7394 c -0.0582,-0.0235 -0.15346,-0.0235 -0.21167,0 -0.0582,0.0235 -0.0106,0.0427 0.10584,0.0427 0.11641,0 0.16404,-0.0192 0.10583,-0.0427 z m -1.54516,-0.11326 c -0.28949,-0.0927 -0.51209,-0.0927 -0.29634,0 0.0931,0.04 0.24554,0.0716 0.33867,0.0703 0.13612,-0.002 0.12782,-0.0158 -0.0423,-0.0703 z m -4.10634,-0.0847 c -0.0288,-0.0466 -0.0977,-0.0841 -0.15316,-0.0834 -0.0606,7.6e-4 -0.0502,0.0341 0.0262,0.0834 0.16265,0.10512 0.19196,0.10512 0.127,0 z m 0.0423,-0.2902 c -0.52852,-0.1943 -0.72813,-0.22046 -0.381,-0.0499 0.18627,0.0915 0.41487,0.16468 0.508,0.16262 0.10864,-0.002 0.0631,-0.0428 -0.127,-0.11269 z m -1.43933,-0.38713 c -0.0699,-0.0451 -0.1651,-0.0821 -0.21167,-0.0821 -0.0466,0 -0.0275,0.0369 0.0423,0.0821 0.0699,0.0451 0.1651,0.0821 0.21167,0.0821 0.0466,0 0.0275,-0.0369 -0.0423,-0.0821 z m 1.65324,-0.49165 c -0.0261,-0.0261 -0.0944,-5e-5 -0.15182,0.0578 -0.083,0.0836 -0.0733,0.0933 0.0474,0.0474 0.0835,-0.0318 0.13049,-0.0791 0.10442,-0.10521 z m -1.22502,-0.43304 c -0.17948,-0.13795 -0.42247,-0.24031 -0.93622,-0.39441 -0.0699,-0.0209 0.1397,0.0926 0.46566,0.25243 0.69139,0.3389 0.74966,0.35649 0.47056,0.14198 z m -3.22222,-0.46731 c 0,-0.0205 -0.0381,-0.0609 -0.0847,-0.0897 -0.0466,-0.0288 -0.0847,-0.012 -0.0847,0.0373 0,0.0493 0.0381,0.0897 0.0847,0.0897 0.0466,0 0.0847,-0.0168 0.0847,-0.0373 z m -1.185335,-1.529 c -0.05797,-0.0699 -0.14836,-0.12579 -0.200866,-0.12431 -0.05251,0.001 -0.02151,0.0586 0.06888,0.127 0.211131,0.15969 0.265821,0.15858 0.131984,-0.003 z m -7.020648,0.50094 c 0.0041,-0.0986 0.02412,-0.11869 0.05115,-0.0511 0.02446,0.0611 0.02145,0.13415 -0.0067,0.16228 -0.02813,0.0281 -0.04814,-0.0219 -0.04447,-0.11112 z m 16.630313,-0.0353 c -0.0288,-0.0466 -0.012,-0.0847 0.0373,-0.0847 0.0493,0 0.0897,0.0381 0.0897,0.0847 0,0.0466 -0.0168,0.0847 -0.0373,0.0847 -0.0205,0 -0.0609,-0.0381 -0.0897,-0.0847 z m -16.545642,-0.38805 c 0.0041,-0.0986 0.02412,-0.11869 0.05115,-0.0512 0.02446,0.0611 0.02145,0.13414 -0.0067,0.16228 -0.02814,0.0281 -0.04815,-0.0219 -0.04447,-0.11113 z m 16.634362,-1.66511 c -0.0355,-0.0815 -0.0355,-0.21484 0,-0.29633 0.0614,-0.14112 0.0662,-0.14112 0.0999,0 0.0195,0.0815 0.0195,0.21484 0,0.29633 -0.0337,0.14111 -0.0385,0.14111 -0.0999,0 z M 93.281571,93.456346 c -5.08e-4,-0.221192 -0.02495,-0.554567 -0.05432,-0.740833 -0.02936,-0.186267 -0.02849,-0.315994 0.0019,-0.288283 0.08406,0.07657 0.198643,1.431282 0.121063,1.431282 -0.03726,0 -0.06816,-0.180975 -0.06867,-0.402166 z m 10.922929,0.0635 c 0.0699,-0.04514 0.22225,-0.08207 0.33867,-0.08207 0.16755,0 0.1852,0.01711 0.0847,0.08207 -0.0699,0.04514 -0.22225,0.08207 -0.33867,0.08207 -0.16755,0 -0.18519,-0.01711 -0.0847,-0.08207 z m 1.06257,-0.242973 c 0.11015,-0.100847 0.71543,-0.186258 0.71543,-0.100954 0,0.03782 -0.11906,0.09257 -0.26458,0.121677 -0.37499,0.075 -0.54678,0.0671 -0.45085,-0.02072 z m 15.0241,-12.29269 c 0,-0.04931 0.0381,-0.06612 0.0847,-0.03734 0.0466,0.02878 0.0847,0.06913 0.0847,0.08966 0,0.02054 -0.0381,0.03734 -0.0847,0.03734 -0.0466,0 -0.0847,-0.04035 -0.0847,-0.08966 z"
       id="path826"
       inkscape:connector-curvature="0" />
  </g>
</svg>
